<?xml version="1.0" standalone="no"?>
<!DOCTYPE svg PUBLIC "-//W3C//DTD SVG 20010904//EN"
 "http://www.w3.org/TR/2001/REC-SVG-20010904/DTD/svg10.dtd">
<svg version="1.0" xmlns="http://www.w3.org/2000/svg"
 width="512.000000pt" height="512.000000pt" viewBox="0 0 512.000000 512.000000"
 preserveAspectRatio="xMidYMid meet">
<metadata>
Created by potrace 1.14, written by Peter Selinger 2001-2017
</metadata>
<g transform="translate(0.000000,512.000000) scale(0.100000,-0.100000)"
fill="#000000" stroke="none">
<path d="M413 4956 c-143 -47 -232 -156 -254 -314 -11 -78 3 -524 26 -811 73
-903 286 -1770 620 -2526 177 -399 500 -968 596 -1049 89 -76 228 -105 341
-72 151 44 807 523 1277 933 188 165 604 575 784 773 362 400 711 857 1001
1313 147 230 151 239 151 362 0 87 -3 107 -26 155 -51 109 -111 152 -409 290
-849 396 -1729 664 -2700 824 -584 96 -1298 158 -1407 122z m302 -51 c1432
-107 2684 -432 3851 -1000 187 -91 228 -125 258 -213 19 -54 21 -135 4 -183
-14 -44 -127 -225 -284 -456 -698 -1033 -1571 -1902 -2628 -2618 -209 -142
-249 -160 -340 -153 -116 10 -164 49 -276 228 -699 1111 -1066 2414 -1097
3896 l-6 291 25 54 c37 80 98 135 178 160 38 11 98 10 315 -6z"/>
<path d="M467 4769 c-96 -23 -127 -79 -130 -238 -1 -60 1 -112 4 -115 5 -5
1521 125 1759 151 l65 7 -40 8 c-99 21 -517 90 -685 112 -297 40 -802 88 -900
85 -19 -1 -52 -5 -73 -10z"/>
<path d="M2525 4463 c-82 -8 -2174 -193 -2180 -193 -7 0 -5 -52 16 -345 14
-209 13 -205 57 -205 34 0 3345 292 3476 306 71 8 74 6 -130 84 -406 156
-1082 363 -1169 358 -16 -1 -48 -3 -70 -5z"/>
<path d="M2280 3744 c-1015 -91 -1854 -166 -1866 -169 -20 -4 -20 -6 -8 -107
8 -57 26 -180 40 -273 l27 -170 36 3 c117 9 4005 353 4049 358 51 6 54 8 82
58 16 28 35 74 41 103 10 45 9 59 -5 97 -10 25 -32 58 -49 72 -18 15 -109 65
-204 111 -162 78 -176 83 -235 82 -35 -1 -893 -75 -1908 -165z"/>
<path d="M4420 3233 c-19 -2 -899 -80 -1955 -173 -1056 -94 -1930 -172 -1941
-175 l-22 -5 20 -92 c25 -116 106 -440 112 -446 5 -4 3405 295 3441 303 11 2
38 28 60 57 123 165 329 458 369 526 7 12 -8 13 -84 5z"/>
<path d="M2282 2345 c-876 -78 -1595 -145 -1599 -148 -12 -12 170 -537 186
-537 17 0 2492 220 2531 225 50 6 34 -8 245 226 134 149 315 363 315 373 0 11
-65 6 -1678 -139z"/>
<path d="M2075 1628 c-616 -54 -1128 -102 -1137 -106 -14 -6 -7 -28 56 -167
109 -241 175 -365 194 -365 23 0 1235 108 1340 119 63 7 90 14 115 33 73 56
371 324 502 451 l140 136 -45 -1 c-25 0 -549 -45 -1165 -100z"/>
<path d="M1785 903 c-275 -24 -508 -47 -517 -51 -15 -6 -5 -29 76 -162 51 -85
112 -174 134 -196 79 -80 166 -77 306 10 108 67 555 387 611 437 16 15 -94 8
-610 -38z"/>
</g>
</svg>
